<svg width="20" height="20" viewBox="0 0 20 20" fill="none" xmlns="http://www.w3.org/2000/svg">
<g clip-path="url(#clip0_847_3148)">
<path d="M16.2167 6.66758C16.6409 5.7278 17.3936 4.97516 18.3333 4.55091C18.6583 4.40091 18.6583 3.94258 18.3333 3.79258C17.3938 3.36842 16.6388 2.60806 16.2167 1.66758C16.0667 1.34258 15.6083 1.34258 15.4583 1.66758C15.0342 2.60716 14.2738 3.36209 13.3333 3.78424C13.0083 3.93424 13.0083 4.39258 13.3333 4.54258C14.2729 4.96673 15.0279 5.72709 15.45 6.66758C15.6 6.99258 16.0667 6.99258 16.2167 6.66758ZM12.3165 9.15921C10.5544 8.35871 9.14222 6.94654 8.34171 5.18442L8.25835 5.00091C7.96668 4.35091 7.03335 4.35091 6.74168 5.00091L6.65831 5.18442C5.85781 6.94654 4.44564 8.35871 2.68352 9.15921L2.50001 9.24258C1.85001 9.54258 1.85001 10.4676 2.50001 10.7592L2.68352 10.8426C4.44564 11.6431 5.85781 13.0553 6.65831 14.8174L6.74168 15.0009C7.04168 15.6509 7.96668 15.6509 8.25835 15.0009L8.34171 14.8174C9.14222 13.0553 10.5544 11.6431 12.3165 10.8426L12.5 10.7592C13.15 10.4592 13.15 9.53424 12.5 9.24258L12.3165 9.15921ZM15.45 13.3342C15.0258 14.274 14.2731 15.0267 13.3333 15.4509C13.0083 15.6009 13.0083 16.0592 13.3333 16.2092C14.2729 16.6334 15.0279 17.3938 15.45 18.3342C15.6 18.6592 16.0583 18.6592 16.2083 18.3342C16.6325 17.3947 17.3929 16.6397 18.3333 16.2176C18.6583 16.0676 18.6583 15.6092 18.3333 15.4592C17.3938 15.0351 16.6388 14.2747 16.2167 13.3342C16.0667 13.0092 15.6 13.0092 15.45 13.3342Z" fill="white"/>
</g>
<defs>
<clipPath id="clip0_847_3148">
<rect width="20" height="20" fill="white"/>
</clipPath>
</defs>
</svg>
