<svg width="16" height="16" viewBox="0 0 16 16" fill="none" xmlns="http://www.w3.org/2000/svg">
<path fill-rule="evenodd" clip-rule="evenodd" d="M8.32232 1.1662C8.66947 1.16715 8.97355 1.17286 9.23083 1.20709C9.56509 1.25161 9.86936 1.34937 10.14 1.57697C10.4041 1.79904 10.5667 2.0866 10.6982 2.41638C10.8132 2.70471 10.9193 3.06613 11.0433 3.49929L13.076 3.49923C13.3366 3.49891 13.5657 3.49862 13.7623 3.55481C14.3289 3.71666 14.7379 4.20345 14.8205 4.78337C14.8493 4.98523 14.8215 5.21321 14.7885 5.48254L14.7813 5.54189L14.7724 5.61574C14.6748 6.4213 14.6154 6.91128 14.4661 7.3269C14.3849 7.55274 14.2839 7.76816 14.1655 7.97109C14.166 7.98042 14.1663 7.98988 14.1663 7.99935L14.1662 10.3439C14.1653 11.1947 14.1565 11.896 14.068 12.4602C13.9647 13.1193 13.7435 13.6597 13.2541 14.0795C12.7757 14.4899 12.1787 14.6663 11.45 14.7503C10.7355 14.8327 9.82141 14.8327 8.66188 14.8327H7.33729C6.17775 14.8327 5.26367 14.8327 4.54919 14.7503C3.8205 14.6663 3.22347 14.4899 2.74507 14.0795C2.25559 13.6597 2.03449 13.1193 1.93117 12.4602C1.83289 11.8333 1.8329 11.0372 1.83292 10.0547L1.83312 7.98517L1.83371 7.97109C1.71522 7.76816 1.61431 7.55274 1.53313 7.3269C1.38374 6.91128 1.32438 6.4213 1.22682 5.61574L1.21789 5.54189L1.21065 5.48252C1.17772 5.2132 1.14986 4.98522 1.17862 4.78337C1.26126 4.20345 1.67024 3.71666 2.23683 3.55481C2.4335 3.49862 2.66258 3.49891 2.92323 3.49923L4.95582 3.49929C5.07984 3.06613 5.18604 2.70471 5.30102 2.41638C5.43252 2.0866 5.59511 1.79904 5.8592 1.57697C6.12987 1.34937 6.4341 1.25161 6.76836 1.20709C7.07711 1.16601 7.45323 1.16602 7.89029 1.16602L8.32232 1.1662ZM13.1663 9.09481C12.77 9.39214 12.3145 9.61088 11.821 9.73035C11.4684 9.81573 11.0737 9.82991 10.4989 9.83219H5.5003C4.9255 9.82991 4.53082 9.81573 4.17817 9.73035C3.68467 9.61088 3.22915 9.39208 2.83292 9.09475L2.83298 10.2459C2.83363 11.1567 2.84088 11.8064 2.9191 12.3054C3.0002 12.8227 3.14791 13.1077 3.39609 13.3205C3.65534 13.5429 4.02076 13.6827 4.66373 13.7569C5.22128 13.8212 5.93008 13.8309 6.87652 13.8324H9.12265C10.0691 13.8309 10.7779 13.8212 11.3354 13.7569C11.9784 13.6827 12.3438 13.5429 12.6031 13.3205C12.8513 13.1077 12.999 12.8227 13.0801 12.3054C13.1648 11.7648 13.1663 11.0473 13.1663 10.0127V9.09481ZM13.0158 4.49929H2.98333C2.62618 4.49929 2.55398 4.50422 2.51151 4.51636C2.33805 4.56591 2.19762 4.72089 2.16861 4.92444C2.16113 4.97693 2.16668 5.05924 2.2106 5.42155C2.31998 6.32391 2.36785 6.69285 2.47417 6.98865C2.79567 7.88307 3.52699 8.54382 4.41349 8.75842C4.66908 8.82031 4.97273 8.83071 5.63691 8.83234H10.3623C11.0265 8.83071 11.3301 8.82031 11.5857 8.75842C12.4722 8.54382 13.2035 7.88307 13.525 6.98865C13.6313 6.69285 13.6791 6.32391 13.7885 5.42155C13.8325 5.05924 13.838 4.97693 13.8306 4.92444C13.8016 4.72089 13.6611 4.56591 13.4877 4.51636C13.4452 4.50422 13.373 4.49929 13.0158 4.49929ZM8.07755 2.16602H7.92162C7.44442 2.16602 7.13541 2.16704 6.9004 2.19834C6.68356 2.22723 6.58129 2.27631 6.50278 2.34233C6.41769 2.41387 6.33236 2.52979 6.22989 2.78676C6.15639 2.97108 6.08436 3.20009 5.99678 3.49929H10.0024C9.91481 3.20009 9.84281 2.97108 9.76928 2.78676C9.66681 2.52979 9.58148 2.41387 9.49641 2.34233C9.41788 2.27631 9.31561 2.22723 9.09875 2.19834C8.86375 2.16704 8.55475 2.16602 8.07755 2.16602ZM7.99963 6.66602C7.63143 6.66602 7.33292 6.9645 7.33292 7.33268C7.33292 7.70088 7.63143 7.99935 7.99963 7.99935H8.00555C8.37375 7.99935 8.67221 7.70088 8.67221 7.33268C8.67221 6.9645 8.37375 6.66602 8.00555 6.66602H7.99963Z" fill="#161616"/>
</svg>
