<svg width="16" height="16" viewBox="0 0 16 16" fill="none" xmlns="http://www.w3.org/2000/svg">
<path fill-rule="evenodd" clip-rule="evenodd" d="M1.33337 1.5C1.60951 1.5 1.83337 1.72386 1.83337 2L1.83366 9.79106C1.83528 10.6679 1.84586 11.3176 1.91435 11.827L1.92002 11.868L4.47249 7.90782C4.28062 7.6558 4.16671 7.3412 4.16671 7C4.16671 6.17157 4.83828 5.5 5.66671 5.5C6.49513 5.5 7.16671 6.17157 7.16671 7C7.16671 7.20712 7.12472 7.40444 7.04885 7.5839L8.94942 9.0156C9.16249 8.89941 9.40691 8.83333 9.66671 8.83333C9.79851 8.83333 9.92636 8.85033 10.0481 8.88226L11.3714 6.15096C11.0425 5.87581 10.8334 5.46233 10.8334 5C10.8334 4.17157 11.505 3.5 12.3334 3.5C13.1618 3.5 13.8334 4.17157 13.8334 5C13.8334 5.82843 13.1618 6.5 12.3334 6.5L12.3135 6.49988L10.8822 9.4542C11.0612 9.70127 11.1667 10.0049 11.1667 10.3333C11.1667 11.1617 10.4951 11.8333 9.66671 11.8333C8.83831 11.8333 8.16671 11.1617 8.16671 10.3333C8.16671 10.1313 8.20663 9.93853 8.27909 9.76259L6.37054 8.32493C6.16065 8.43666 5.92108 8.5 5.66671 8.5C5.54318 8.5 5.42316 8.48506 5.30831 8.45693L2.42033 12.9377C2.41052 12.9529 2.4 12.9674 2.38888 12.9812C2.62076 13.2039 2.94161 13.3431 3.50637 13.419C4.1007 13.4989 4.88596 13.5 6.00004 13.5H13.3334C13.6095 13.5 13.8334 13.7239 13.8334 14C13.8334 14.2761 13.6095 14.5 13.3334 14.5H5.96289C4.89449 14.5 4.04183 14.5 3.37311 14.4101C2.68227 14.3172 2.11334 14.1202 1.66325 13.6701C1.21316 13.2201 1.01614 12.6511 0.923258 11.9603C0.849715 11.4131 0.836355 10.7429 0.833923 9.93207L0.833374 2C0.833374 1.72386 1.05723 1.5 1.33337 1.5ZM9.66671 9.83333C9.39057 9.83333 9.16671 10.0572 9.16671 10.3333C9.16671 10.6095 9.39057 10.8333 9.66671 10.8333C9.94284 10.8333 10.1667 10.6095 10.1667 10.3333C10.1667 10.0572 9.94284 9.83333 9.66671 9.83333ZM5.66671 6.5C5.39057 6.5 5.16671 6.72386 5.16671 7C5.16671 7.27614 5.39057 7.5 5.66671 7.5C5.94285 7.5 6.16671 7.27614 6.16671 7C6.16671 6.72386 5.94285 6.5 5.66671 6.5ZM12.3334 4.5C12.0572 4.5 11.8334 4.72386 11.8334 5C11.8334 5.27614 12.0572 5.5 12.3334 5.5C12.6095 5.5 12.8334 5.27614 12.8334 5C12.8334 4.72386 12.6095 4.5 12.3334 4.5Z" fill="#161616"/>
</svg>
