<svg width="16" height="16" viewBox="0 0 16 16" fill="none" xmlns="http://www.w3.org/2000/svg">
<path d="M4.40248 5.70352C4.48374 5.81111 4.72634 6.13227 4.87083 6.31741C5.16021 6.68822 5.55561 7.18094 5.98215 7.67221C6.41085 8.16595 6.86119 8.64681 7.26126 9.00031C7.46187 9.17756 7.63809 9.31225 7.78351 9.39992C7.92028 9.48237 8.00107 9.49951 8.00107 9.49951C8.00107 9.49951 8.07949 9.48236 8.21625 9.39992C8.36167 9.31225 8.53789 9.17757 8.7385 9.00031C9.13858 8.64682 9.58892 8.16595 10.0176 7.6722C10.4441 7.18093 10.8396 6.6882 11.1289 6.31739C11.2734 6.13224 11.5157 5.81154 11.5969 5.70395C11.7607 5.4816 12.074 5.43365 12.2964 5.5974C12.5187 5.76116 12.5662 6.07415 12.4025 6.2965L12.4013 6.29806C12.3162 6.41077 12.0648 6.74363 11.9173 6.93261C11.6214 7.3118 11.2144 7.81907 10.7727 8.32781C10.3332 8.83406 9.84938 9.35319 9.40064 9.74969C9.17684 9.94744 8.94998 10.1253 8.73253 10.2563C8.52882 10.3791 8.27089 10.5 7.99988 10.5C7.72887 10.5 7.47095 10.3791 7.26723 10.2563C7.04979 10.1252 6.82293 9.94744 6.59913 9.74969C6.15038 9.35319 5.6666 8.83406 5.22705 8.32782C4.78535 7.81909 4.3784 7.31182 4.08248 6.93264C3.93494 6.74359 3.68363 6.41086 3.5986 6.29828L3.59752 6.29686C3.43376 6.07451 3.48103 5.76119 3.70337 5.59743C3.92571 5.43368 4.23872 5.48119 4.40248 5.70352Z" fill="#161616"/>
</svg>
