<svg width="16" height="16" viewBox="0 0 16 16" fill="none" xmlns="http://www.w3.org/2000/svg">
<path d="M11.598 10.2965C11.5168 10.1889 11.2741 9.86773 11.1297 9.68259C10.8403 9.31178 10.4449 8.81906 10.0183 8.32779C9.58964 7.83405 9.1393 7.35319 8.73923 6.99969C8.53862 6.82244 8.36239 6.68775 8.21697 6.60008C8.08021 6.51763 7.99942 6.50049 7.99942 6.50049C7.99942 6.50049 7.921 6.51764 7.78424 6.60008C7.63882 6.68775 7.4626 6.82243 7.26199 6.99969C6.86191 7.35318 6.41157 7.83405 5.98288 8.3278C5.55634 8.81907 5.16093 9.3118 4.87155 9.68261C4.72707 9.86775 4.4848 10.1885 4.40354 10.296C4.23979 10.5184 3.92645 10.5664 3.7041 10.4026C3.48175 10.2388 3.43425 9.92584 3.59801 9.7035L3.59917 9.70195C3.68429 9.58926 3.93572 9.25637 4.0832 9.06739C4.37912 8.6882 4.78607 8.18093 5.22778 7.67219C5.66732 7.16594 6.1511 6.64681 6.59985 6.25031C6.82365 6.05256 7.05051 5.87475 7.26795 5.74366C7.47167 5.62085 7.7296 5.5 8.00061 5.5C8.27162 5.5 8.52954 5.62086 8.73326 5.74367C8.9507 5.87475 9.17756 6.05256 9.40136 6.25031C9.85011 6.64681 10.3339 7.16594 10.7734 7.67218C11.2151 8.18091 11.6221 8.68817 11.918 9.06736C12.0655 9.25641 12.3169 9.58914 12.4019 9.70172L12.403 9.70314C12.5667 9.92549 12.5195 10.2388 12.2971 10.4026C12.0748 10.5663 11.7618 10.5188 11.598 10.2965Z" fill="#161616"/>
</svg>
