<svg width="40" height="40" viewBox="0 0 40 40" fill="none" xmlns="http://www.w3.org/2000/svg">
<path d="M32 0C36.4183 0 40 3.58172 40 8V32C40 36.4183 36.4183 40 32 40H8C3.58172 40 0 36.4183 0 32V8C0 3.58172 3.58172 0 8 0H32Z" fill="#3B82F6"/>
<path d="M32 0C36.4183 0 40 3.58172 40 8V32C40 36.4183 36.4183 40 32 40H8C3.58172 40 0 36.4183 0 32V8C0 3.58172 3.58172 0 8 0H32Z" stroke="#E5E7EB"/>
<path d="M30 32H10V8H30V32Z" stroke="#E5E7EB"/>
<g clip-path="url(#clip0_847_2162)">
<path d="M22.275 11.0372C21.7437 10.8841 21.1906 11.1935 21.0375 11.7247L17.0375 25.7247C16.8843 26.256 17.1937 26.8091 17.725 26.9622C18.2562 27.1154 18.8093 26.806 18.9625 26.2747L22.9625 12.2747C23.1156 11.7435 22.8062 11.1904 22.275 11.0372ZM24.7937 14.7904C24.4031 15.181 24.4031 15.8154 24.7937 16.206L27.5843 18.9997L24.7906 21.7935C24.4 22.1841 24.4 22.8185 24.7906 23.2091C25.1812 23.5997 25.8156 23.5997 26.2062 23.2091L29.7062 19.7091C30.0968 19.3185 30.0968 18.6841 29.7062 18.2935L26.2062 14.7935C25.8156 14.4029 25.1812 14.4029 24.7906 14.7935L24.7937 14.7904ZM15.2093 14.7904C14.8187 14.3997 14.1843 14.3997 13.7937 14.7904L10.2937 18.2904C9.90308 18.681 9.90308 19.3154 10.2937 19.706L13.7937 23.206C14.1843 23.5966 14.8187 23.5966 15.2093 23.206C15.6 22.8154 15.6 22.181 15.2093 21.7904L12.4156 18.9997L15.2093 16.206C15.6 15.8154 15.6 15.181 15.2093 14.7904Z" fill="white"/>
</g>
<defs>
<clipPath id="clip0_847_2162">
<path d="M10 11H30V27H10V11Z" fill="white"/>
</clipPath>
</defs>
</svg>
