<svg width="40" height="40" viewBox="0 0 40 40" fill="none" xmlns="http://www.w3.org/2000/svg">
<path d="M32 0C36.4183 0 40 3.58172 40 8V32C40 36.4183 36.4183 40 32 40H8C3.58172 40 0 36.4183 0 32V8C0 3.58172 3.58172 0 8 0H32Z" fill="#22C55E"/>
<path d="M32 0C36.4183 0 40 3.58172 40 8V32C40 36.4183 36.4183 40 32 40H8C3.58172 40 0 36.4183 0 32V8C0 3.58172 3.58172 0 8 0H32Z" stroke="#E5E7EB"/>
<path d="M28 32H12V8H28V32Z" stroke="#E5E7EB"/>
<g clip-path="url(#clip0_847_2168)">
<path d="M14 13C14 12.4469 13.5531 12 13 12C12.4469 12 12 12.4469 12 13V23.5C12 24.8813 13.1187 26 14.5 26H27C27.5531 26 28 25.5531 28 25C28 24.4469 27.5531 24 27 24H14.5C14.225 24 14 23.775 14 23.5V13ZM26.7063 15.7063C27.0969 15.3156 27.0969 14.6813 26.7063 14.2906C26.3156 13.9 25.6812 13.9 25.2906 14.2906L22 17.5844L20.2063 15.7906C19.8156 15.4 19.1813 15.4 18.7906 15.7906L15.2906 19.2906C14.9 19.6812 14.9 20.3156 15.2906 20.7063C15.6813 21.0969 16.3156 21.0969 16.7063 20.7063L19.5 17.9156L21.2937 19.7094C21.6844 20.1 22.3188 20.1 22.7094 19.7094L26.7094 15.7094L26.7063 15.7063Z" fill="white"/>
</g>
<defs>
<clipPath id="clip0_847_2168">
<path d="M12 11H28V27H12V11Z" fill="white"/>
</clipPath>
</defs>
</svg>
