<svg width="40" height="40" viewBox="0 0 40 40" fill="none" xmlns="http://www.w3.org/2000/svg">
<rect width="40" height="40" rx="4" fill="#CCEFEB"/>
<g clip-path="url(#clip0_845_1240)">
<path d="M25 19V11H15V15H11V29H19V25H21V29H29V19H25ZM15 27H13V25H15V27ZM15 23H13V21H15V23ZM15 19H13V17H15V19ZM19 23H17V21H19V23ZM19 19H17V17H19V19ZM19 15H17V13H19V15ZM23 23H21V21H23V23ZM23 19H21V17H23V19ZM23 15H21V13H23V15ZM27 27H25V25H27V27ZM27 23H25V21H27V23Z" fill="#00AF9D"/>
</g>
<defs>
<clipPath id="clip0_845_1240">
<rect width="24" height="24" fill="white" transform="translate(8 8)"/>
</clipPath>
</defs>
</svg>
