<svg width="22" height="22" viewBox="0 0 22 22" fill="none" xmlns="http://www.w3.org/2000/svg">
<path d="M11 0C17.0751 0 22 4.92487 22 11C22 17.0751 17.0751 22 11 22C4.92487 22 0 17.0751 0 11C0 4.92487 4.92487 0 11 0ZM11 1.53488C5.77256 1.53488 1.53488 5.77256 1.53488 11C1.53488 16.2274 5.77256 20.4651 11 20.4651C16.2274 20.4651 20.4651 16.2274 20.4651 11C20.4651 5.77256 16.2274 1.53488 11 1.53488ZM10.2595 9.2093C10.4694 9.20922 10.6965 9.20954 10.8881 9.23528C11.1125 9.26546 11.3993 9.34275 11.6405 9.58403C11.8818 9.82531 11.9591 10.1121 11.9893 10.3365C12.015 10.528 12.0153 10.7552 12.0153 10.965V16.1163C12.0153 16.5401 11.6717 16.8837 11.2478 16.8837C10.824 16.8837 10.4804 16.5401 10.4804 16.1163V11C10.4804 10.8986 10.4805 10.8163 10.4794 10.7452C10.4083 10.744 10.3259 10.7442 10.2246 10.7442C9.80072 10.7442 9.45712 10.4006 9.45712 9.97674C9.45713 9.55291 9.80072 9.2093 10.2246 9.2093C10.2362 9.2093 10.2478 9.20931 10.2595 9.2093ZM11.001 5.88372C11.5661 5.88372 12.0243 6.34185 12.0243 6.90698C12.0243 7.47211 11.5661 7.93023 11.001 7.93023H10.992C10.4269 7.93023 9.96875 7.47211 9.96875 6.90698C9.96875 6.34185 10.4269 5.88372 10.992 5.88372H11.001Z" fill="#161616"/>
</svg>
