<svg width="22" height="22" viewBox="0 0 22 22" fill="none" xmlns="http://www.w3.org/2000/svg">
<path d="M9.97674 0C4.46674 0 0 4.46674 0 9.97674C0 15.4867 4.46674 19.9535 9.97674 19.9535C12.4557 19.9535 14.7212 19.0467 16.466 17.5502L20.69 21.7752C20.9897 22.0749 21.4755 22.0749 21.7752 21.7752C22.0749 21.4755 22.0749 20.9897 21.7752 20.69L17.5512 16.465C19.0471 14.7203 19.9535 12.4552 19.9535 9.97674C19.9535 4.46674 15.4867 0 9.97674 0ZM9.97674 1.53488C14.6391 1.53488 18.4186 5.31443 18.4186 9.97674C18.4186 14.6391 14.6391 18.4186 9.97674 18.4186C5.31443 18.4186 1.53488 14.6391 1.53488 9.97674C1.53488 5.31443 5.31443 1.53488 9.97674 1.53488Z" fill="white"/>
</svg>
