<svg width="22" height="22" viewBox="0 0 22 22" fill="none" xmlns="http://www.w3.org/2000/svg">
<path d="M8.247 6.16552C8.82305 6.10999 9.50488 6.14767 10.2276 6.24246C11.6783 6.43279 13.4237 6.87164 15.095 7.40961C16.7679 7.9481 18.4026 8.59704 19.6307 9.22129C20.2409 9.53145 20.7792 9.85001 21.1756 10.1606C21.3726 10.315 21.5606 10.487 21.7052 10.6762C21.8418 10.855 22.0022 11.131 22 11.4747C21.9944 12.309 21.425 12.8792 20.8728 13.2404C20.3057 13.6113 19.5766 13.8855 18.8683 14.0967C18.1499 14.311 17.3965 14.4762 16.7538 14.6094C16.5948 14.6423 16.445 14.6738 16.3051 14.7023C15.8572 14.7936 15.5101 14.8641 15.2819 14.9281C14.9069 15.0333 14.8301 15.1013 14.8052 15.128C14.777 15.1584 14.7105 15.2499 14.6224 15.6506L14.6184 15.6656C14.2058 17.5419 13.8821 19.0174 13.5352 20.0224C13.3619 20.5245 13.1605 20.978 12.8966 21.3205C12.6182 21.6818 12.222 21.9755 11.6895 21.999C11.3389 22.0144 11.0569 21.8543 10.8791 21.7222C10.6896 21.5814 10.5175 21.397 10.3635 21.2046C10.0531 20.8168 9.73181 20.287 9.41715 19.6857C8.78379 18.4752 8.11575 16.858 7.55151 15.1979C6.9875 13.5385 6.51534 11.8017 6.28743 10.3535C6.17392 9.63205 6.1165 8.95265 6.14853 8.37691C6.17841 7.84026 6.29292 7.22477 6.68514 6.80205C7.0901 6.36595 7.70735 6.21755 8.247 6.16552ZM8.39489 7.6934C8.1891 7.71324 8.03811 7.74631 7.93523 7.78334C7.8475 7.81494 7.81527 7.84203 7.81032 7.84629C7.8061 7.85208 7.78063 7.88907 7.75236 7.98419C7.71965 8.09438 7.69215 8.25184 7.68041 8.46285C7.65687 8.88692 7.69916 9.4474 7.80432 10.1156C8.01394 11.4474 8.4572 13.0932 9.00445 14.7033C9.55145 16.3127 10.1905 17.853 10.7772 18.9742C11.0726 19.5388 11.3407 19.9693 11.5616 20.2453C11.6068 20.3017 11.6463 20.3477 11.6805 20.3842C11.7912 20.2405 11.9279 19.9738 12.0842 19.5208C12.3956 18.6183 12.7001 17.2463 13.1235 15.3209C13.2203 14.8805 13.3541 14.4361 13.6801 14.0848C14.0096 13.7295 14.4414 13.5697 14.8672 13.4502C15.1543 13.3697 15.5824 13.2828 16.0463 13.1884C16.1762 13.162 16.3088 13.1341 16.442 13.1065C17.077 12.9749 17.778 12.8204 18.4306 12.6258C19.0933 12.4282 19.6534 12.2049 20.0334 11.9563C20.3001 11.7819 20.403 11.6468 20.4421 11.5586C20.3979 11.5115 20.3291 11.4477 20.2283 11.3687C19.9448 11.1466 19.5071 10.88 18.9352 10.5893C17.7988 10.0117 16.2436 9.39176 14.6244 8.87055C13.004 8.34898 11.3544 7.93839 10.0277 7.76435C9.3618 7.67701 8.80862 7.65358 8.39489 7.6934ZM3.2946 11.4807C3.59431 11.1809 4.08011 11.1809 4.37981 11.4807C4.67952 11.7804 4.67952 12.2662 4.37981 12.5659L3.35656 13.5891C3.05685 13.8888 2.57105 13.8888 2.27135 13.5891C1.97164 13.2894 1.97164 12.8036 2.27135 12.5039L3.2946 11.4807ZM2.30233 7.19277C2.72602 7.19277 3.06952 7.53658 3.06977 7.96021C3.06977 8.38406 2.72617 8.72765 2.30233 8.72765H0.767442C0.343595 8.72765 0 8.38406 0 7.96021C0.000249874 7.53658 0.34375 7.19277 0.767442 7.19277H2.30233ZM2.27135 2.27135C2.57105 1.97164 3.05685 1.97164 3.35656 2.27135L4.37981 3.2946C4.67952 3.59431 4.67952 4.08011 4.37981 4.37981C4.08011 4.67952 3.59431 4.67952 3.2946 4.37981L2.27135 3.35656C1.97164 3.05685 1.97164 2.57105 2.27135 2.27135ZM12.5039 2.27135C12.8036 1.97164 13.2894 1.97164 13.5891 2.27135C13.8888 2.57105 13.8888 3.05685 13.5891 3.35656L12.5659 4.37981C12.2662 4.67952 11.7804 4.67952 11.4807 4.37981C11.1809 4.08011 11.1809 3.59431 11.4807 3.2946L12.5039 2.27135ZM7.96021 0C8.38406 0 8.72765 0.343595 8.72765 0.767442V2.30233C8.72765 2.72617 8.38406 3.06977 7.96021 3.06977C7.53655 3.06955 7.19277 2.72604 7.19277 2.30233V0.767442C7.19277 0.343727 7.53655 0.000212987 7.96021 0Z" fill="white"/>
</svg>
