<svg width="15" height="13" viewBox="0 0 15 13" fill="none" xmlns="http://www.w3.org/2000/svg">
<path d="M7.55481 0.8125C8.63183 0.00367546 10.4152 -0.482691 12.4025 0.736328C13.7766 1.57924 14.5498 3.34027 14.2784 5.36328C14.0058 7.39601 12.6898 9.69547 9.90344 11.7578C9.88025 11.775 9.85692 11.7917 9.83411 11.8086C8.86663 12.5251 8.22601 12.9999 7.16614 13C6.1061 13 5.46477 12.5252 4.49719 11.8086C4.47435 11.7917 4.45107 11.775 4.42786 11.7578C1.64156 9.6955 0.326531 7.396 0.053833 5.36328C-0.21749 3.34027 0.555649 1.57924 1.92981 0.736328C3.91699 -0.482421 5.69953 0.00372246 6.77649 0.8125C6.95361 0.945511 7.07563 1.03617 7.16614 1.09766C7.25657 1.03621 7.378 0.945283 7.55481 0.8125ZM11.879 1.58887C10.291 0.614934 8.95302 1.01233 8.1554 1.61133L8.14172 1.62207C7.96145 1.75746 7.8066 1.87399 7.68274 1.95508C7.6184 1.9972 7.54671 2.03983 7.47278 2.07324C7.4026 2.10493 7.29509 2.14448 7.16614 2.14453C7.03691 2.14453 6.92873 2.10497 6.85852 2.07324C6.78459 2.03982 6.71289 1.99719 6.64856 1.95508C6.52474 1.87399 6.36973 1.75737 6.18958 1.62207L6.1759 1.61133C5.37818 1.01241 4.04028 0.614781 2.45227 1.58887C1.48019 2.18515 0.814433 3.51829 1.04407 5.23047C1.27244 6.93273 2.3976 9.01004 5.02258 10.9531C6.07736 11.7338 6.46305 12 7.16614 12C7.86907 11.9999 8.25406 11.7337 9.30872 10.9531C11.9339 9.01 13.0588 6.93279 13.2872 5.23047C13.5169 3.51829 12.8511 2.18514 11.879 1.58887ZM7.16614 4C7.44208 4.00009 7.66594 4.22408 7.66614 4.5V6H9.16614C9.44208 6.00009 9.66594 6.22408 9.66614 6.5C9.66614 6.77609 9.4422 6.99991 9.16614 7H7.66614V8.5C7.66614 8.77608 7.4422 8.99991 7.16614 9C6.89 9 6.66614 8.77614 6.66614 8.5V7H5.16614C4.89 7 4.66614 6.77614 4.66614 6.5C4.66633 6.22402 4.89012 6 5.16614 6H6.66614V4.5C6.66633 4.22402 6.89012 4 7.16614 4Z" fill="#161616"/>
</svg>
