<svg width="3" height="15" viewBox="0 0 3 15" fill="none" xmlns="http://www.w3.org/2000/svg">
<path d="M1.3022 12.4138C2.01636 12.4138 2.5953 12.9927 2.5953 13.7069C2.5953 14.4211 2.01636 15 1.3022 15H1.2931C0.578942 15 0 14.4211 0 13.7069C0 12.9927 0.578942 12.4138 1.2931 12.4138H1.3022ZM1.31028 6.2069C2.02444 6.2069 2.60338 6.78584 2.60338 7.5C2.60338 8.21416 2.02444 8.7931 1.31028 8.7931H1.30119C0.587024 8.7931 0.0080819 8.21416 0.0080819 7.5C0.0080819 6.78584 0.587024 6.2069 1.30119 6.2069H1.31028ZM1.31836 0C2.03252 0 2.61146 0.578942 2.61146 1.2931C2.61146 2.00726 2.03252 2.58621 1.31836 2.58621H1.30927C0.595106 2.58621 0.0161638 2.00726 0.0161638 1.2931C0.0161638 0.578942 0.595106 0 1.30927 0H1.31836Z" fill="#161616"/>
</svg>
