<svg width="15" height="14" viewBox="0 0 15 14" fill="none" xmlns="http://www.w3.org/2000/svg">
<path d="M9.72035 0.616776C10.3622 0.158883 10.8688 -0.202017 11.5309 0.126623C11.5329 0.128006 11.5359 0.129335 11.538 0.130708C12.0384 0.388544 12.1598 0.83731 12.1895 1.44493C12.9399 1.13776 13.7699 1.07231 14.2931 1.50007C14.9874 2.05846 14.9875 2.89811 14.9875 4.28884V9.03618C14.9875 10.3292 14.9871 11.0428 14.5381 11.5656C14.0989 12.0783 13.3396 12.2161 11.828 12.4907L11.7831 12.4989C10.4481 12.7415 9.50966 13.1272 8.95755 13.4067L8.36937 13.7008C7.98665 13.8882 7.7682 13.9742 7.57287 13.9929C7.54667 13.9969 7.52003 14 7.49322 14C7.46919 14 7.44505 13.9984 7.42071 13.9949C7.1498 13.9712 6.83713 13.8152 6.10343 13.4445L6.02991 13.4077C5.47778 13.1275 4.53972 12.7435 3.20438 12.5009L3.15945 12.4928C1.64748 12.2181 0.888151 12.0797 0.448286 11.5666C0.000140486 11.0431 0 10.3302 0 9.0372V4.28986C3.22152e-09 2.8993 0.000711132 2.06019 0.698468 1.49905C1.37666 0.944326 2.11597 1.07533 3.34121 1.29278L3.3892 1.30095C5.39689 1.66132 6.73335 2.56433 7.42378 3.1523C7.87107 2.43791 8.62779 1.40278 9.72035 0.616776ZM3.15842 2.32108C2.0509 2.12466 1.6519 2.06903 1.35711 2.30985C1.05808 2.55033 1.04566 3.05967 1.04566 4.28986V9.0372C1.04566 10.0466 1.04616 10.6572 1.24274 10.8865C1.44107 11.1178 2.19939 11.2551 3.34632 11.4635L3.39125 11.4716C4.5463 11.6815 5.62299 12.0283 6.5027 12.4744L6.5752 12.5122C6.71237 12.5816 6.84773 12.6489 6.97141 12.7103V4.14996C6.49035 3.68738 5.25772 2.69881 3.20642 2.33027L3.15842 2.32108ZM13.6344 2.31291C13.4339 2.14901 12.7784 2.26144 12.1997 2.60496V8.24274C12.1997 8.78222 12.1998 9.08066 12.0333 9.36295C11.8625 9.65989 11.5423 9.83683 10.9651 10.1554C10.0084 10.6976 9.2798 11.5711 8.76557 12.3396C9.58938 11.9586 10.5609 11.6603 11.5962 11.4716L11.6411 11.4635C12.7884 11.255 13.5466 11.1179 13.7447 10.8865C13.942 10.6565 13.9418 10.0466 13.9418 9.0372V4.28986C13.9418 3.05967 13.93 2.5513 13.6344 2.31291ZM11.0621 1.06098C10.9743 1.02333 10.8075 1.12651 10.33 1.4674C9.09576 2.35536 8.32875 3.64495 8.01707 4.20204V11.587C8.59213 10.7646 9.40081 9.83975 10.4525 9.24449C10.4539 9.2438 10.4555 9.24213 10.4576 9.24143C10.7377 9.08675 11.0537 8.91177 11.1306 8.83297C11.1542 8.75683 11.1551 8.49533 11.1551 8.24172V2.34967C11.1545 2.33738 11.1548 2.32518 11.1551 2.31291V2.08009C11.1551 1.60745 11.1549 1.11814 11.0621 1.06098Z" fill="#161616"/>
</svg>
