<svg width="20" height="20" viewBox="0 0 20 20" fill="none" xmlns="http://www.w3.org/2000/svg">
<path d="M7.13117 14.4948C7.26565 14.3933 7.6671 14.09 7.89852 13.9094C8.36203 13.5477 8.97794 13.0534 9.59202 12.5202C10.2092 11.9844 10.8103 11.4215 11.2521 10.9214C11.4737 10.6706 11.6421 10.4503 11.7517 10.2685C11.8547 10.0976 11.8761 9.9966 11.8761 9.9966C11.8761 9.9966 11.8547 9.89858 11.7517 9.72763C11.6421 9.54585 11.4737 9.32557 11.2522 9.07481C10.8103 8.57472 10.2092 8.01179 9.59201 7.47593C8.97793 6.94276 8.36201 6.4485 7.8985 6.08677C7.66707 5.90616 7.26618 5.60333 7.1317 5.50176C6.85377 5.29706 6.79382 4.90539 6.99851 4.62746C7.20321 4.34952 7.59446 4.29015 7.87239 4.49484L7.87451 4.49644C8.01556 4.60297 8.4314 4.91706 8.66753 5.10133C9.14152 5.47123 9.7756 5.97992 10.4115 6.53205C11.0443 7.08148 11.6933 7.68621 12.1889 8.24714C12.4361 8.52689 12.6583 8.81047 12.8222 9.08227C12.9757 9.33692 13.1268 9.65933 13.1268 9.99809C13.1268 10.3368 12.9757 10.6593 12.8222 10.9139C12.6583 11.1857 12.4361 11.4693 12.1889 11.749C11.6933 12.31 11.0443 12.9147 10.4115 13.4641C9.77562 14.0163 9.14154 14.5249 8.66756 14.8948C8.43127 15.0792 8.01541 15.3934 7.87465 15.4997L7.87283 15.501C7.5949 15.7057 7.20325 15.6467 6.99856 15.3687C6.79387 15.0908 6.85326 14.6995 7.13117 14.4948Z" fill="#161616"/>
</svg>
