<svg width="20" height="20" viewBox="0 0 20 20" fill="none" xmlns="http://www.w3.org/2000/svg">
<path d="M12.8706 5.5031C12.7361 5.60467 12.3347 5.90793 12.1032 6.08853C11.6397 6.45026 11.0238 6.94452 10.4097 7.47769C9.79256 8.01356 9.19148 8.57648 8.74961 9.07658C8.52805 9.32734 8.35969 9.54762 8.25011 9.72939C8.14704 9.90035 8.12561 10.0013 8.12561 10.0013C8.12561 10.0013 8.14704 10.0994 8.2501 10.2703C8.35968 10.4521 8.52804 10.6724 8.74961 10.9231C9.19148 11.4232 9.79256 11.9861 10.4098 12.522C11.0238 13.0552 11.6397 13.5494 12.1033 13.9112C12.3347 14.0918 12.7356 14.3946 12.8701 14.4962C13.148 14.7009 13.2079 15.0925 13.0032 15.3705C12.7986 15.6484 12.4073 15.7078 12.1294 15.5031L12.1274 15.5016C11.9864 15.3951 11.5704 15.0809 11.3342 14.8966C10.8602 14.5267 10.2262 14.018 9.59024 13.4659C8.95743 12.9165 8.30851 12.3117 7.81288 11.7508C7.5657 11.471 7.34344 11.1875 7.17958 10.9157C7.02607 10.661 6.875 10.3386 6.875 9.99985C6.875 9.66109 7.02607 9.33868 7.17959 9.08404C7.34344 8.81223 7.5657 8.52866 7.81288 8.24891C8.30851 7.68798 8.95742 7.08325 9.59023 6.53382C10.2261 5.98169 10.8602 5.473 11.3342 5.1031C11.5705 4.91867 11.9865 4.60449 12.1272 4.49823L12.1289 4.4969C12.4069 4.2922 12.7985 4.35128 13.0032 4.62922C13.2079 4.90714 13.1485 5.2984 12.8706 5.5031Z" fill="#161616"/>
</svg>
