<svg width="20" height="20" viewBox="0 0 20 20" fill="none" xmlns="http://www.w3.org/2000/svg">
<path fill-rule="evenodd" clip-rule="evenodd" d="M9.16675 1.04102C4.67943 1.04102 1.04175 4.6787 1.04175 9.16602C1.04175 13.6533 4.67943 17.291 9.16675 17.291C11.1854 17.291 13.0322 16.5548 14.4531 15.3363L17.8915 18.7746C18.1356 19.0187 18.5313 19.0187 18.7754 18.7746C19.0194 18.5305 19.0194 18.1348 18.7754 17.8907L15.337 14.4524C16.5556 13.0314 17.2917 11.1847 17.2917 9.16602C17.2917 4.6787 13.6541 1.04102 9.16675 1.04102ZM2.29175 9.16602C2.29175 5.36906 5.36979 2.29102 9.16675 2.29102C12.9637 2.29102 16.0417 5.36906 16.0417 9.16602C16.0417 12.963 12.9637 16.041 9.16675 16.041C5.36979 16.041 2.29175 12.963 2.29175 9.16602Z" fill="#161616"/>
</svg>
