<svg width="16" height="16" viewBox="0 0 16 16" fill="none" xmlns="http://www.w3.org/2000/svg">
<path fill-rule="evenodd" clip-rule="evenodd" d="M4.12142 1.5C4.13298 1.5 4.14457 1.5 4.15621 1.5L11.8786 1.5C12.3923 1.49998 12.8284 1.49996 13.1724 1.54687C13.5366 1.59652 13.8849 1.70861 14.1514 2.00207C14.4204 2.29809 14.494 2.65484 14.4996 3.01952C14.5049 3.36009 14.4505 3.78315 14.387 4.27641L14.3824 4.31233C14.3599 4.48688 14.3262 4.65571 14.256 4.82474C14.1847 4.99635 14.0865 5.14251 13.9643 5.28777C13.3111 6.06369 12.097 7.46593 10.3876 8.74293C10.36 8.76358 10.3251 8.81254 10.3184 8.886C10.1523 10.7213 10.0063 11.6923 9.90085 12.2549C9.78687 12.8632 9.32284 13.2842 8.92276 13.5741C8.71339 13.7259 8.49115 13.8625 8.29321 13.9829C8.27734 13.9926 8.26166 14.0021 8.24618 14.0115C8.06127 14.124 7.90407 14.2196 7.77267 14.3125C7.41233 14.5673 6.99661 14.5494 6.67885 14.3643C6.37898 14.1896 6.16797 13.871 6.12531 13.5107C6.03167 12.7197 5.86191 11.1713 5.67451 8.88172C5.66849 8.80828 5.65702 8.78697 5.65607 8.7852C5.65541 8.78396 5.65372 8.78086 5.64812 8.7747C5.64186 8.76782 5.62935 8.75563 5.60557 8.73785C3.89968 7.46245 2.68788 6.06267 2.03567 5.28774C1.91387 5.14302 1.81281 5.00034 1.74075 4.82682C1.67021 4.65694 1.64013 4.48726 1.61763 4.31233C1.61608 4.30031 1.61454 4.28834 1.613 4.2764C1.54953 3.78315 1.49508 3.36009 1.50035 3.01952C1.506 2.65484 1.57961 2.29809 1.84854 2.00206C2.11512 1.70861 2.46335 1.59652 2.82753 1.54687C3.17161 1.49996 3.60771 1.49998 4.12142 1.5ZM2.96263 2.5377C2.70656 2.57261 2.62942 2.62966 2.58871 2.67447C2.55034 2.71672 2.50401 2.7911 2.50023 3.03499C2.49621 3.29475 2.54008 3.64541 2.60945 4.18475C2.62873 4.33462 2.64562 4.39836 2.66429 4.44331C2.68144 4.48461 2.71182 4.53814 2.80076 4.64382C3.43961 5.40287 4.59231 6.7317 6.20436 7.93694C6.33387 8.03378 6.4527 8.15365 6.53866 8.31507C6.62336 8.47411 6.65803 8.63957 6.67117 8.80015C6.85755 11.0772 7.02609 12.6136 7.11837 13.3931C7.12119 13.4168 7.12984 13.4403 7.14316 13.4607C7.15679 13.4816 7.17192 13.4942 7.18222 13.5002C7.18353 13.501 7.18469 13.5016 7.18568 13.5021C7.18805 13.5008 7.19125 13.4989 7.19532 13.496C7.35673 13.3819 7.54407 13.268 7.72089 13.1606C7.73849 13.1499 7.75599 13.1393 7.77335 13.1287C7.97255 13.0075 8.16307 12.8897 8.33601 12.7644C8.70055 12.5002 8.87936 12.2767 8.91795 12.0707C9.01561 11.5495 9.15815 10.6121 9.3225 8.79587C9.35261 8.46311 9.51598 8.14587 9.78912 7.94181C11.4045 6.73502 12.5595 5.40381 13.1992 4.6438C13.2768 4.55163 13.3113 4.4922 13.3325 4.44107C13.3549 4.38735 13.3736 4.31626 13.3905 4.18475C13.4599 3.64541 13.5038 3.29475 13.4997 3.03499C13.496 2.7911 13.4496 2.71672 13.4113 2.67447C13.3706 2.62966 13.2934 2.57261 13.0374 2.5377C12.7689 2.5011 12.4018 2.5 11.8438 2.5H4.15621C3.59818 2.5 3.23107 2.5011 2.96263 2.5377ZM7.18044 13.5044C7.18046 13.5044 7.18079 13.5042 7.18141 13.5041L7.18044 13.5044Z" fill="#161616"/>
</svg>
