<svg width="16" height="16" viewBox="0 0 16 16" fill="none" xmlns="http://www.w3.org/2000/svg">
<path d="M2.37376 3.79047C2.4607 3.69264 2.57103 3.53905 2.67255 3.39767L2.69628 3.36462C2.74089 3.30247 2.78671 3.23864 2.83335 3.17459V6C2.83335 6.27614 3.05721 6.5 3.33335 6.5C3.60949 6.5 3.83335 6.27614 3.83335 6V3.17459C3.88 3.23865 3.9258 3.30246 3.97042 3.36462L3.99415 3.39767C4.09567 3.53905 4.206 3.69264 4.29294 3.79047C4.47637 3.99688 4.79241 4.01551 4.99882 3.83208C5.20523 3.64865 5.22386 3.33261 5.04043 3.1262C4.99629 3.07653 4.9211 2.97409 4.8064 2.81437L4.78122 2.77929C4.67996 2.6382 4.56035 2.47153 4.43702 2.31233C4.30521 2.14219 4.15517 1.96211 4.00318 1.82053C3.92714 1.7497 3.83823 1.67673 3.73969 1.61905C3.646 1.56421 3.50457 1.5 3.33335 1.5C3.16213 1.5 3.0207 1.56421 2.92701 1.61905C2.82847 1.67673 2.73956 1.7497 2.66352 1.82053C2.51153 1.96211 2.36149 2.14219 2.22968 2.31233C2.10635 2.47153 1.98673 2.6382 1.88547 2.7793L1.8603 2.81437C1.7456 2.97409 1.67041 3.07653 1.62627 3.1262C1.44284 3.33261 1.46147 3.64865 1.66788 3.83208C1.87429 4.01551 2.19033 3.99688 2.37376 3.79047Z" fill="#161616"/>
<path d="M7.33334 3.5C7.0572 3.5 6.83334 3.72386 6.83334 4C6.83334 4.27614 7.0572 4.5 7.33334 4.5H14C14.2762 4.5 14.5 4.27614 14.5 4C14.5 3.72386 14.2762 3.5 14 3.5H7.33334Z" fill="#161616"/>
<path d="M7.33334 6.16667C7.0572 6.16667 6.83334 6.39052 6.83334 6.66667C6.83334 6.94281 7.05719 7.16667 7.33334 7.16667L12 7.1667C12.2761 7.16671 12.5 6.94285 12.5 6.66671C12.5 6.39056 12.2762 6.16671 12 6.1667L7.33334 6.16667Z" fill="#161616"/>
<path d="M7.33334 8.83333C7.0572 8.83333 6.83334 9.05719 6.83334 9.33333C6.83334 9.60948 7.0572 9.83333 7.33334 9.83333H10.6667C10.9428 9.83333 11.1667 9.60948 11.1667 9.33333C11.1667 9.05719 10.9428 8.83333 10.6667 8.83333H7.33334Z" fill="#161616"/>
<path d="M6.83334 12C6.83334 11.7239 7.0572 11.5 7.33334 11.5H9.33334C9.60949 11.5 9.83334 11.7239 9.83334 12C9.83334 12.2761 9.60949 12.5 9.33334 12.5H7.33334C7.0572 12.5 6.83334 12.2761 6.83334 12Z" fill="#161616"/>
<path d="M3.99414 12.6023C4.09566 12.461 4.20599 12.3074 4.29293 12.2095C4.47636 12.0031 4.79239 11.9845 4.99881 12.1679C5.20522 12.3514 5.22385 12.6674 5.04042 12.8738C4.99628 12.9235 4.92109 13.0259 4.80639 13.1856L4.78121 13.2207C4.67996 13.3618 4.56034 13.5285 4.43701 13.6877C4.3052 13.8578 4.15516 14.0379 4.00317 14.1795C3.92713 14.2503 3.83822 14.3233 3.73967 14.381C3.64599 14.4358 3.50456 14.5 3.33334 14.5C3.16211 14.5 3.02069 14.4358 2.927 14.381C2.82846 14.3233 2.73955 14.2503 2.66351 14.1795C2.51152 14.0379 2.36148 13.8578 2.22967 13.6877C2.10634 13.5285 1.98673 13.3618 1.88547 13.2207L1.86029 13.1856C1.74559 13.0259 1.6704 12.9235 1.62626 12.8738C1.44283 12.6674 1.46146 12.3514 1.66787 12.1679C1.87428 11.9845 2.19032 12.0031 2.37375 12.2095C2.46069 12.3074 2.57102 12.461 2.67254 12.6023L2.69627 12.6354C2.74086 12.6975 2.78671 12.7614 2.83334 12.8254L2.83334 10C2.83334 9.72386 3.0572 9.5 3.33334 9.5C3.60948 9.5 3.83334 9.72386 3.83334 10L3.83334 12.8254C3.87991 12.7615 3.92564 12.6978 3.97018 12.6357L3.99414 12.6023Z" fill="#161616"/>
</svg>
